# xmcd
# 
# Track frame offsets:
#   150
#   16114
#   31310
#   52145
#   70993
#   86530
#   106023
#   120843
#   141249
#   159991
#   177906
#   202071
#   217275
#   234632
#   267755
# 
# Disc length: 3851 seconds
# 
# Revision: 1
# Processed by: cddbd v1.5.1PL0 Copyright (c) Steve Scherf et al.
# Submitted via: VOLTOCDX V1.0.24 
# 
DISCID=cf0f090f
DTITLE=My Artist - My Title
DYEAR=2005
DGENRE=Description of the extended genre
TTITLE0=Circles
TTITLE1=
TTITLE2=All Cried Out
TTITLE3=Caught Out There
TTITLE4=
TTITLE5=
TTITLE6=clown
TTITLE7=
TTITLE8=
TTITLE9=
TTITLE10=Cry baby (feat. Snoop Dogg)
TTITLE11=We Belong Together
TTITLE12=
TTITLE13=
TTITLE14=
EXTD=Extended CD description
EXTT0=
EXTT1=
EXTT2=
EXTT3=
EXTT4=
EXTT5=
EXTT6=
EXTT7=
EXTT8=
EXTT9=
EXTT10=
EXTT11=
EXTT12=
EXTT13=
EXTT14=
PLAYORDER=
